<?xml version="1.0" encoding="UTF-8" standalone="no"?>
<svg
   width="121"
   height="31"
   viewBox="0 0 121 31"
   fill="none"
   version="1.1"
   id="svg3542"
   sodipodi:docname="Artnex-white.svg"
   inkscape:version="1.2 (dc2aedaf03, 2022-05-15)"
   xmlns:inkscape="http://www.inkscape.org/namespaces/inkscape"
   xmlns:sodipodi="http://sodipodi.sourceforge.net/DTD/sodipodi-0.dtd"
   xmlns="http://www.w3.org/2000/svg"
   xmlns:svg="http://www.w3.org/2000/svg">
  <defs
     id="defs3546" />
  <sodipodi:namedview
     id="namedview3544"
     pagecolor="#505050"
     bordercolor="#eeeeee"
     borderopacity="1"
     inkscape:showpageshadow="0"
     inkscape:pageopacity="0"
     inkscape:pagecheckerboard="0"
     inkscape:deskcolor="#505050"
     showgrid="false"
     inkscape:zoom="11.313709"
     inkscape:cx="51.221045"
     inkscape:cy="11.181125"
     inkscape:window-width="1920"
     inkscape:window-height="1080"
     inkscape:window-x="0"
     inkscape:window-y="0"
     inkscape:window-maximized="1"
     inkscape:current-layer="svg3542" />
  <path
     d="M 15.1925,0.559998 29.3525,30 h -5.16 l -2.52,-5.76 H 8.1925 L 5.6725,30 h -5 l 14.08,-29.440002 z m -2,12.520002 -3.2,7.12 h 9.92 l -3.16,-7.08 -1.72,-4.04 h -0.08 z m 18.2228,-1.44 h 4.32 v 3.6 c 0.4267,-1.2267 1.12,-2.2133 2.08,-2.96 0.96,-0.7467 2.0533,-1.12 3.28,-1.12 0.8533,0 1.44,0.08 1.76,0.24 l -0.6,4.36 c -0.24,-0.16 -0.76,-0.24 -1.56,-0.24 -1.2533,0 -2.4,0.4 -3.44,1.2 -1.0133,0.8 -1.52,2.08 -1.52,3.84 V 30 h -4.32 z m 16.095,3.52 h -3.24 v -3.52 h 3.24 V 4.16 l 4.36,-0.96 v 8.44 h 4.24 v 3.52 h -4.24 V 30 h -4.36 z m 12.111,-3.52 h 4.24 l 0.04,3.36 c 0.5066,-1.12 1.3066,-2.04 2.4,-2.76 1.0933,-0.72 2.3733,-1.08 3.84,-1.08 1.8933,0 3.3466,0.4 4.36,1.2 1.0133,0.7733 1.6933,1.8667 2.04,3.28 0.3466,1.4133 0.52,3.2533 0.52,5.52 V 30 h -4.32 v -8.72 c 0,-2.32 -0.2267,-3.9867 -0.68,-5 -0.4534,-1.04 -1.3867,-1.56 -2.8,-1.56 -0.8,0 -1.6134,0.2533 -2.44,0.76 -0.8267,0.48 -1.52,1.1867 -2.08,2.12 -0.5334,0.9333 -0.8,2.0267 -0.8,3.28 V 30 h -4.32 z M 91.3091,30.4 c -2.1867,0 -4.0134,-0.4267 -5.48,-1.28 -1.4667,-0.88 -2.5467,-2.04 -3.24,-3.48 -0.6934,-1.4667 -1.04,-3.0667 -1.04,-4.8 0,-1.9467 0.4,-3.6533 1.2,-5.12 0.8266,-1.4667 1.96,-2.5867 3.4,-3.36 1.44,-0.8 3.0666,-1.2 4.88,-1.2 2.8266,0 4.92,0.7867 6.28,2.36 1.3866,1.5467 2.08,3.7333 2.08,6.56 0,0.72 -0.04,1.4667 -0.12,2.24 h -13.2 c 0.2933,1.6267 0.8666,2.8 1.72,3.52 0.88,0.72 2.0933,1.08 3.64,1.08 1.28,0 2.3333,-0.1067 3.16,-0.32 0.8266,-0.2133 1.5866,-0.5067 2.28,-0.88 l 1.32,3.08 c -0.6667,0.4267 -1.5734,0.8 -2.72,1.12 -1.1467,0.32 -2.5334,0.48 -4.16,0.48 z m 3.88,-11.08 c 0.0266,-1.6533 -0.3334,-2.8133 -1.08,-3.48 -0.7467,-0.6933 -1.8134,-1.04 -3.2,-1.04 -2.8,0 -4.4134,1.5067 -4.84,4.52 z m 13.2089,1.16 -6.44,-8.84 h 5.12 l 3.76,5.68 3.56,-5.68 h 5.24 l -6.48,8.6 7.04,9.76 h -4.96 l -4.36,-6.48 -4.16,6.48 h -5.2 z"
     fill="#000000"
     id="path3540"
     sodipodi:nodetypes="cccccccccccccccccccssccscsccccccccccccccccccccsccsccscsccscccsccsccscscccsccccsccsccccccccccccccc"
     style="fill:#ffffff;fill-opacity:1" />
</svg>
